<svg width="161" height="39" viewBox="0 0 161 39" fill="none" xmlns="http://www.w3.org/2000/svg">
<path fill-rule="evenodd" clip-rule="evenodd" d="M133 0V0.350003V38.65V39H133.345H160.655H161V30.6943H160.655H141.769V23.5708H158.501H158.846V23.2204V15.7796V15.4292H158.501H141.769V8.30575H160.655H161V0H133Z" fill="white"/>
<path fill-rule="evenodd" clip-rule="evenodd" d="M63.2586 15.0815C63.2586 11.0766 59.1863 9.12976 51.7024 9.12976H43.9432V21.0889H51.7024C59.1863 21.0889 63.2586 19.0865 63.2586 15.0815ZM68.7617 38.9999C61.6079 38.9999 54.0687 30.1557 49.721 30.1557H43.9432V38.9999H34.9731V0.0629673H51.7024C65.13 0.0629673 72.174 7.34959 72.174 15.0815C72.174 22.8134 66.3955 26.9294 64.0293 27.8196C65.13 29.7664 70.9081 31.1013 72.8892 29.1545C78.0622 31.1566 75.9159 38.9999 68.7617 38.9999Z" fill="white"/>
<mask id="mask0" mask-type="alpha" maskUnits="userSpaceOnUse" x="0" y="0" width="161" height="39">
<path fill-rule="evenodd" clip-rule="evenodd" d="M0 39H160.753V0.00744534H0V39Z" fill="white"/>
</mask>
<g mask="url(#mask0)">
<path fill-rule="evenodd" clip-rule="evenodd" d="M79.3713 39H88.3414V0.00744534H79.3713V39Z" fill="white"/>
<path fill-rule="evenodd" clip-rule="evenodd" d="M11.1438 38.8887H20.1138V0.0631089H11.1438V38.8887Z" fill="white"/>
<path fill-rule="evenodd" clip-rule="evenodd" d="M0 9.12955H31.2579V0.0627546H0V9.12955Z" fill="white"/>
<path fill-rule="evenodd" clip-rule="evenodd" d="M118.939 30.0305C118.158 30.8027 117.124 31.1945 115.866 31.1945H105.392H101.258V23.1023H105.392H115.866C117.123 23.1023 118.156 23.503 118.938 24.2925C119.719 25.0828 120.115 26.0525 120.115 27.1761C120.115 28.2996 119.72 29.2597 118.939 30.0305ZM101.258 7.8122H105.392H114.774C116.03 7.8122 117.063 8.2217 117.844 9.02864C118.626 9.83771 119.023 10.8177 119.023 11.9412C119.023 13.0659 118.626 14.0455 117.844 14.8535C117.064 15.6608 116.031 16.0703 114.774 16.0703H105.392H101.258V7.8122ZM127.265 22.9158C126.279 21.2963 124.787 20.0089 122.831 19.086C124.112 18.1749 125.154 16.98 125.932 15.5303C126.761 13.9848 127.182 12.2944 127.182 10.506C127.182 7.5236 126.059 4.99994 123.847 3.00527C121.639 1.01591 118.679 0.00758721 115.047 0.00758721H105.392V0.00723267H101.258H92.2886V38.9994H101.258H105.392H116.413C120.189 38.9994 123.232 37.9915 125.457 36.0021C127.689 34.0081 128.82 31.4657 128.82 28.4457C128.82 26.4726 128.297 24.612 127.265 22.9158Z" fill="white"/>
</g>
</svg>
